<?xml version="1.0" standalone="no"?>
<!DOCTYPE svg PUBLIC "-//W3C//DTD SVG 20010904//EN"
 "http://www.w3.org/TR/2001/REC-SVG-20010904/DTD/svg10.dtd">
<svg version="1.0" xmlns="http://www.w3.org/2000/svg"
 width="256.000000pt" height="256.000000pt" viewBox="0 0 256.000000 256.000000"
 preserveAspectRatio="xMidYMid meet">

<g transform="translate(0.000000,256.000000) scale(0.100000,-0.100000)"
fill="#000000" stroke="none">
<path d="M1576 1973 c-2 -10 -8 -38 -11 -63 -10 -65 -43 -155 -83 -228 -19
-34 -32 -69 -29 -77 4 -8 -2 -16 -14 -20 -27 -9 -24 -22 9 -30 18 -4 31 -15
38 -33 8 -19 22 -31 45 -38 26 -7 35 -16 37 -36 4 -32 34 -43 300 -109 194
-48 183 -40 203 -143 11 -61 3 -113 -21 -126 -10 -5 -71 -15 -135 -22 l-118
-12 -36 41 c-90 101 -319 357 -397 443 -48 52 -118 130 -156 173 -38 42 -74
77 -79 77 -15 0 -10 -26 11 -53 11 -14 20 -29 20 -34 0 -4 -7 1 -15 12 -15 18
-15 18 -12 -11 2 -16 6 -34 9 -40 10 -15 35 -126 37 -159 0 -17 7 -54 15 -83
15 -58 10 -63 -23 -28 -14 15 -19 26 -12 31 6 3 11 13 11 21 0 12 -4 12 -20 4
-17 -9 -35 4 -137 97 -65 59 -125 117 -135 128 -9 11 -19 17 -22 14 -8 -7 20
-75 34 -84 5 -3 10 -12 10 -18 0 -7 -14 4 -30 23 -16 19 -30 31 -30 26 0 -8
104 -205 180 -341 15 -27 -49 33 -191 178 -118 119 -231 235 -251 257 -21 22
-42 40 -46 40 -11 0 -3 -50 11 -68 5 -7 7 -16 3 -19 -4 -4 -12 -1 -17 7 -9 13
-10 12 -5 -2 2 -9 10 -36 16 -60 6 -24 22 -78 36 -121 13 -43 22 -82 20 -86
-3 -4 1 -32 9 -61 8 -30 13 -55 11 -57 -3 -3 -69 72 -191 217 -106 127 -133
155 -140 149 -3 -4 1 -25 9 -48 12 -36 12 -42 0 -37 -18 7 -18 2 1 -33 8 -16
11 -31 8 -35 -4 -4 3 -9 15 -13 25 -6 29 -18 7 -27 -16 -6 -20 -37 -8 -50 5
-4 8 -22 8 -39 0 -22 4 -31 14 -29 9 2 11 -3 6 -15 -16 -38 -17 -53 -5 -53 8
0 11 -9 7 -29 -3 -16 -3 -32 1 -35 4 -4 8 -35 9 -69 2 -34 6 -63 11 -65 4 -1
6 -18 4 -37 -3 -23 0 -35 8 -35 8 0 9 -10 5 -28 -4 -20 -1 -33 10 -42 13 -11
15 -29 10 -107 -5 -79 -3 -93 10 -93 14 0 19 -43 18 -162 0 -26 24 -22 30 4 3
13 11 74 18 135 10 92 14 109 23 91 17 -33 30 -23 41 34 8 43 15 55 43 71 45
26 81 17 177 -43 44 -28 85 -50 91 -50 15 0 54 48 54 66 0 20 58 82 83 90 12
3 30 13 39 21 16 14 23 10 85 -38 37 -30 96 -80 130 -111 34 -32 72 -58 83
-58 22 0 44 30 54 74 4 16 22 44 41 63 42 42 79 43 195 3 81 -27 85 -28 88 -9
4 23 0 23 57 -2 34 -15 50 -18 58 -10 8 8 7 11 -3 11 -7 0 -11 3 -7 6 3 3 2
17 -3 30 -7 17 -6 24 3 24 27 0 307 -83 307 -91 0 -6 -6 -12 -14 -15 -9 -4 -5
-13 16 -36 28 -30 31 -31 75 -22 25 5 49 16 53 24 20 41 29 71 39 130 6 36 17
94 24 129 19 86 11 253 -11 249 -9 -2 -20 -18 -24 -36 -5 -17 -13 -32 -18 -32
-9 0 -6 34 10 95 11 47 -10 60 -54 34 -22 -13 -37 -16 -41 -9 -3 5 -4 14 -1
18 9 15 -47 60 -102 81 -58 23 -102 27 -118 11 -15 -15 -44 -1 -44 21 0 10 -4
19 -9 19 -5 0 -32 16 -61 35 -29 19 -63 38 -75 41 -13 3 -30 13 -38 22 -25 29
-55 126 -63 200 -3 39 -11 69 -15 66 -5 -3 -18 15 -29 40 -20 48 -35 58 -44
29z m33 -144 c1 -4 -5 -9 -12 -12 -10 -4 -12 3 -9 27 4 27 6 28 13 11 4 -11 8
-23 8 -26z m-994 -282 c30 -60 10 -46 -25 18 -15 27 -17 35 -6 26 8 -7 22 -27
31 -44z m96 -14 c13 -16 12 -17 -3 -4 -10 7 -18 15 -18 17 0 8 8 3 21 -13z
m178 -187 c19 -22 74 -84 121 -136 91 -101 142 -167 69 -88 -169 181 -316 346
-275 309 27 -24 65 -62 85 -85z m998 98 c-3 -3 -12 -4 -19 -1 -8 3 -5 6 6 6
11 1 17 -2 13 -5z m135 -30 c70 -15 78 -19 78 -40 0 -28 -20 -32 -27 -5 -3 14
-26 24 -89 41 -46 13 -84 25 -84 28 0 2 10 2 22 -1 12 -4 57 -14 100 -23z
m138 -58 c0 -3 -4 -8 -10 -11 -5 -3 -10 -1 -10 4 0 6 5 11 10 11 6 0 10 -2 10
-4z m11 -33 c-12 -20 -14 -14 -5 12 4 9 9 14 11 11 3 -2 0 -13 -6 -23z m-502
-176 c41 -42 72 -80 68 -83 -11 -11 -54 29 -124 116 -76 95 -55 83 56 -33z
m536 -124 c-4 -27 -11 -55 -17 -63 -9 -15 -9 -14 8 78 10 50 17 38 9 -15z
m-1061 -39 c3 -8 2 -12 -4 -9 -6 3 -10 10 -10 16 0 14 7 11 14 -7z"/>
</g>
</svg>
